<svg xmlns="http://www.w3.org/2000/svg" width="128" height="128"><path d="M0 0 C2.20734315 -0.00964011 4.41372631 -0.04071769 6.62084961 -0.07226562 C23.08763712 -0.19415758 42.12818865 1.46777809 54.67358398 13.24023438 C63.05844176 22.75818104 62.40321649 36.98365423 61.84643555 48.92871094 C61.04863407 59.59761539 57.52502123 66.97765492 49.67358398 74.24023438 C46.15634261 77.24023438 46.15634261 77.24023438 42.67358398 77.24023438 C42.87854492 77.83191406 43.08350586 78.42359375 43.29467773 79.03320312 C43.5640918 79.82339844 43.83350586 80.61359375 44.11108398 81.42773438 C44.37791992 82.20503906 44.64475586 82.98234375 44.91967773 83.78320312 C48.12799924 94.23933903 47.86464707 106.10056563 43.67358398 116.24023438 C41.29356175 120.63966942 38.11974948 122.88185727 33.41455078 124.55322266 C27.72202637 125.98002979 21.83224109 126.29953702 15.99536133 126.74829102 C13.70574863 126.92524846 11.41839889 127.12123536 9.13061523 127.3203125 C-27.93653033 130.42256929 -27.93653033 130.42256929 -38.32641602 122.24023438 C-44.89824852 113.15396161 -43.99464503 101.09466395 -43.08813477 90.43945312 C-42.16233813 85.02494553 -39.82260387 80.53257477 -35.32641602 77.24023438 C-31.86141602 76.25023438 -31.86141602 76.25023438 -28.32641602 75.24023438 C-28.32641602 68.64023438 -28.32641602 62.04023437 -28.32641602 55.24023438 C-29.97641602 54.91023438 -31.62641602 54.58023438 -33.32641602 54.24023438 C-38.09721983 52.4876942 -40.18388509 50.56152454 -42.56469727 46.25195312 C-44.62393998 40.81344033 -44.50913188 35.09662482 -44.51391602 29.36523438 C-44.52616211 28.60082031 -44.5384082 27.83640625 -44.55102539 27.04882812 C-44.56873824 20.09358197 -43.83088189 12.83198511 -39.32641602 7.24023438 C-28.01958097 -0.67455016 -13.27237097 0.03486231 0 0 Z " fill="#53D3F4" transform="translate(57.326416015625,-0.240234375)"/><path d="M0 0 C2.20734315 -0.00964011 4.41372631 -0.04071769 6.62084961 -0.07226562 C23.08763712 -0.19415758 42.12818865 1.46777809 54.67358398 13.24023438 C63.05844176 22.75818104 62.40321649 36.98365423 61.84643555 48.92871094 C61.04863407 59.59761539 57.52502123 66.97765492 49.67358398 74.24023438 C46.15634261 77.24023438 46.15634261 77.24023438 42.67358398 77.24023438 C42.87854492 77.83191406 43.08350586 78.42359375 43.29467773 79.03320312 C43.5640918 79.82339844 43.83350586 80.61359375 44.11108398 81.42773438 C44.37791992 82.20503906 44.64475586 82.98234375 44.91967773 83.78320312 C48.12799924 94.23933903 47.86464707 106.10056563 43.67358398 116.24023438 C41.29356175 120.63966942 38.11974948 122.88185727 33.41455078 124.55322266 C27.72202637 125.98002979 21.83224109 126.29953702 15.99536133 126.74829102 C13.70574863 126.92524846 11.41839889 127.12123536 9.13061523 127.3203125 C-27.93653033 130.42256929 -27.93653033 130.42256929 -38.32641602 122.24023438 C-44.89824852 113.15396161 -43.99464503 101.09466395 -43.08813477 90.43945312 C-42.16233813 85.02494553 -39.82260387 80.53257477 -35.32641602 77.24023438 C-31.86141602 76.25023438 -31.86141602 76.25023438 -28.32641602 75.24023438 C-28.32641602 68.64023438 -28.32641602 62.04023437 -28.32641602 55.24023438 C-29.97641602 54.91023438 -31.62641602 54.58023438 -33.32641602 54.24023438 C-38.09721983 52.4876942 -40.18388509 50.56152454 -42.56469727 46.25195312 C-44.62393998 40.81344033 -44.50913188 35.09662482 -44.51391602 29.36523438 C-44.52616211 28.60082031 -44.5384082 27.83640625 -44.55102539 27.04882812 C-44.56873824 20.09358197 -43.83088189 12.83198511 -39.32641602 7.24023438 C-28.01958097 -0.67455016 -13.27237097 0.03486231 0 0 Z M-29.57641602 17.80273438 C-33.44489709 23.19097588 -32.75034375 28.78711215 -32.32641602 35.24023438 C-31.02326034 39.43929154 -30.1842007 40.6874398 -26.51391602 43.05273438 C-23.41724468 44.20639625 -20.58149049 44.74539042 -17.32641602 45.24023438 C-16.53110437 58.59010846 -16.19837724 71.867296 -16.32641602 85.24023438 C-16.94129883 85.35778076 -17.55618164 85.47532715 -18.18969727 85.59643555 C-18.99793945 85.76119385 -19.80618164 85.92595215 -20.63891602 86.09570312 C-21.83967773 86.33389771 -21.83967773 86.33389771 -23.06469727 86.5769043 C-26.53094608 87.59350599 -28.20351313 89.38758363 -30.32641602 92.24023438 C-32.4698001 98.50551093 -31.55785444 105.13313974 -29.32641602 111.24023438 C-27.56519631 114.07775502 -26.05954012 114.33078155 -22.82641602 115.42773438 C-16.47699138 116.82834275 -10.05127549 116.60104734 -3.63891602 115.75195312 C-0.49710746 115.33697629 2.59982506 115.13072103 5.76733398 115.02929688 C6.65291992 115.0009375 7.53850586 114.97257812 8.45092773 114.94335938 C10.2658247 114.89128199 12.08096241 114.8470087 13.89624023 114.81054688 C20.13560768 114.59257771 26.45495358 114.09481945 31.34643555 109.7565918 C34.94868173 105.64078035 34.87455951 99.18255881 34.54858398 93.99023438 C33.96276518 89.70310586 33.08568138 87.11357955 29.67358398 84.24023438 C24.92198303 82.35752456 20.75386054 82.03287615 15.67358398 82.24023438 C16.16858398 77.29023437 16.16858398 77.29023437 16.67358398 72.24023438 C17.73577148 71.99789062 18.79795898 71.75554687 19.89233398 71.50585938 C35.49341544 68.04892731 35.49341544 68.04892731 46.67358398 57.24023438 C51.08309704 49.03687612 51.31989786 37.55555266 48.67358398 28.74023438 C45.61283852 22.22198014 39.83799979 18.43790673 33.29858398 15.92773438 C23.73801095 12.65701202 14.45694922 11.89172524 4.38867188 11.92456055 C2.37436345 11.92771359 0.36153952 11.90420257 -1.65258789 11.87890625 C-16.59671114 11.58167655 -16.59671114 11.58167655 -29.57641602 17.80273438 Z " fill="#FEFEFE" transform="translate(57.326416015625,-0.240234375)"/><path d="M0 0 C1.25103516 -0.01160156 2.50207031 -0.02320312 3.79101562 -0.03515625 C15.71580694 0.00208932 26.17474175 1.2612753 35.1875 9.5625 C37.49798015 13.56140795 37.44442357 16.86354569 36.8125 21.375 C34.96651612 27.2590736 30.99236435 30.35323925 25.8125 33.375 C22.04021398 34.69903168 18.23435535 35.4985684 14.3125 36.25 C13.29929688 36.46140625 12.28609375 36.6728125 11.2421875 36.890625 C8.76877514 37.40397474 6.29316845 37.89819453 3.8125 38.375 C3.78335652 42.58331868 3.76565288 46.79161122 3.75 51 C3.74162109 52.18980469 3.73324219 53.37960938 3.72460938 54.60546875 C3.72138672 55.75917969 3.71816406 56.91289063 3.71484375 58.1015625 C3.70960693 59.15939941 3.70437012 60.21723633 3.69897461 61.30712891 C3.81374422 64.40862346 4.23553718 67.32847657 4.8125 70.375 C5.87210938 70.35179688 6.93171875 70.32859375 8.0234375 70.3046875 C9.4114513 70.28593056 10.7994727 70.26773028 12.1875 70.25 C12.88617188 70.23324219 13.58484375 70.21648437 14.3046875 70.19921875 C16.14147486 70.18155733 17.97851963 70.27196739 19.8125 70.375 C20.8025 71.365 20.8025 71.365 21.8125 72.375 C21.5625 74.9375 21.5625 74.9375 20.8125 77.375 C18.50733117 78.52758441 17.02016053 78.55771944 14.453125 78.65625 C13.14988281 78.71232422 13.14988281 78.71232422 11.8203125 78.76953125 C10.91023438 78.80433594 10.00015625 78.83914062 9.0625 78.875 C3.55350079 79.08932706 -1.75123032 79.40169407 -7.1875 80.375 C-8.91437683 80.48371992 -10.64475617 80.54908726 -12.375 80.5625 C-13.21417969 80.57667969 -14.05335937 80.59085937 -14.91796875 80.60546875 C-17.1875 80.375 -17.1875 80.375 -20.1875 78.375 C-19.875 76.4375 -19.875 76.4375 -19.1875 74.375 C-15.87205701 73.26985234 -12.98339889 73.05392369 -9.5 72.8125 C-8.32050781 72.72871094 -7.14101563 72.64492187 -5.92578125 72.55859375 C-5.02214844 72.49800781 -4.11851563 72.43742187 -3.1875 72.375 C-3.3414624 71.16078369 -3.4954248 69.94656738 -3.65405273 68.69555664 C-4.33352499 62.55757498 -4.52066367 56.41523648 -4.72265625 50.24609375 C-4.76563339 49.01584976 -4.80861053 47.78560577 -4.85289001 46.51808167 C-4.98846192 42.61632375 -5.11930204 38.71442392 -5.25 34.8125 C-5.34109876 32.15557441 -5.43327723 29.49868764 -5.52539062 26.84179688 C-5.74968105 20.35298357 -5.97009421 13.86404742 -6.1875 7.375 C-6.96182373 7.53798584 -7.73614746 7.70097168 -8.53393555 7.86889648 C-11.10386757 8.35904913 -13.39038629 8.47644946 -16 8.4375 C-16.79019531 8.42847656 -17.58039062 8.41945313 -18.39453125 8.41015625 C-18.98621094 8.39855469 -19.57789063 8.38695312 -20.1875 8.375 C-20.5175 6.725 -20.8475 5.075 -21.1875 3.375 C-14.38186352 -0.4703372 -7.66306561 -0.06998233 0 0 Z " fill="#FBFEFE" transform="translate(58.1875,23.625)"/><path d="M0 0 C9.11656779 -0.42293356 17.30131 -0.16442388 25.0625 5.0625 C27.1412159 7.1412159 27.97523737 8.08378278 28.0546875 11.0234375 C27.99539062 11.79945312 27.93609375 12.57546875 27.875 13.375 C27.83117187 14.14585938 27.78734375 14.91671875 27.7421875 15.7109375 C26.65198922 19.0733385 24.95651144 20.12807836 22 22 C18.6953125 23.046875 18.6953125 23.046875 15.125 23.75 C13.95195313 23.99234375 12.77890625 24.2346875 11.5703125 24.484375 C7.99295523 25.00101741 4.60894702 25.09230044 1 25 C-0.10102642 16.64399592 -0.10094304 8.41192037 0 0 Z " fill="#53D3F4" transform="translate(60,30)"/></svg>
